<?xml version="1.0" standalone="no"?>
<!DOCTYPE svg PUBLIC "-//W3C//DTD SVG 20010904//EN"
 "http://www.w3.org/TR/2001/REC-SVG-20010904/DTD/svg10.dtd">
<svg version="1.0" xmlns="http://www.w3.org/2000/svg"
 width="512.000000pt" height="512.000000pt" viewBox="0 0 512.000000 512.000000"
 preserveAspectRatio="xMidYMid meet">

<g transform="translate(0.000000,512.000000) scale(0.100000,-0.100000)"
fill="#000000" stroke="none">
<path d="M2618 3293 c-15 -71 -61 -288 -103 -483 -136 -637 -216 -1014 -222
-1046 l-5 -31 91 -18 c51 -10 93 -16 95 -14 1 2 21 92 44 199 79 374 233 1096
272 1281 22 102 40 190 40 196 0 9 -141 43 -175 43 -6 0 -23 -57 -37 -127z"/>
<path d="M1860 2865 l-305 -306 310 -303 310 -304 3 131 3 131 -173 173 -173
173 173 173 172 172 0 133 c0 72 -3 132 -8 132 -4 0 -144 -137 -312 -305z"/>
<path d="M2940 3038 l0 -133 172 -172 173 -173 -173 -173 -173 -173 3 -131 3
-132 310 304 310 304 -305 306 c-168 168 -308 305 -312 305 -5 0 -8 -60 -8
-132z"/>
<path d="M1852 1233 l3 -178 50 -11 c28 -7 69 -13 93 -13 l42 -1 0 159 0 160
-57 11 c-32 7 -73 20 -91 31 -18 10 -35 19 -38 19 -2 0 -3 -80 -2 -177z"/>
<path d="M3227 1390 c-16 -10 -55 -23 -88 -29 l-59 -12 0 -160 0 -159 43 1
c23 0 65 6 92 13 l50 11 3 178 c1 97 -1 177 -5 176 -5 0 -21 -9 -36 -19z"/>
</g>
</svg>
