<?xml version="1.0" encoding="UTF-8"?>
<svg version="1.1" xmlns="http://www.w3.org/2000/svg" width="512" height="512">
<path d="M0 0 C1.15886719 -0.00257812 2.31773437 -0.00515625 3.51171875 -0.0078125 C6.3125 0.125 6.3125 0.125 7.3125 1.125 C7.41131245 2.83289281 7.44048966 4.54486693 7.44189453 6.25561523 C7.44504669 7.35022568 7.44819885 8.44483612 7.45144653 9.57261658 C7.44841019 11.36005028 7.44841019 11.36005028 7.4453125 13.18359375 C7.44626923 14.39821793 7.44722595 15.6128421 7.44821167 16.86427307 C7.44889377 19.43921968 7.44703741 22.014168 7.44287109 24.58911133 C7.43752789 28.54186858 7.44281274 32.49451196 7.44921875 36.44726562 C7.44855788 38.94270859 7.44727654 41.43815147 7.4453125 43.93359375 C7.44733673 45.12319199 7.44936096 46.31279022 7.45144653 47.53843689 C7.44671829 49.1850808 7.44671829 49.1850808 7.44189453 50.86499023 C7.44109894 51.8346019 7.44030334 52.80421356 7.43948364 53.8032074 C7.3125 56.125 7.3125 56.125 6.3125 58.125 C4.30859375 58.6171875 4.30859375 58.6171875 1.75 59 C-8.11439661 60.84957436 -15.87636715 65.89765905 -22.046875 73.88452148 C-26.60908994 80.84563613 -26.36103912 87.70242205 -26.3125 95.8125 C-26.3125 120.12597743 -33.54147223 137.48373506 -48.6875 156.125 C-48.26339844 156.50269531 -47.83929688 156.88039063 -47.40234375 157.26953125 C-34.19286038 169.66612334 -27.07955639 187.52372315 -26.41943359 205.48510742 C-26.25902215 212.65031514 -26.24784671 219.81692352 -26.25170898 226.98364258 C-26.71538054 246.71589387 -26.71538054 246.71589387 -17.5703125 263.5625 C-11.04908899 268.97430374 -4.14771892 271.70177003 4.1953125 272.80078125 C6.3125 273.125 6.3125 273.125 7.3125 274.125 C7.4060919 275.84365409 7.42994611 277.56615744 7.42602539 279.28735352 C7.42591209 280.93895226 7.42591209 280.93895226 7.42579651 282.62391663 C7.42063522 283.8218132 7.41547394 285.01970978 7.41015625 286.25390625 C7.4087413 287.47327377 7.40732635 288.6926413 7.40586853 289.94895935 C7.40024967 293.8618307 7.38769396 297.77464581 7.375 301.6875 C7.36998743 304.33268147 7.3654241 306.97786383 7.36132812 309.62304688 C7.35027411 316.12371726 7.33351764 322.62435461 7.3125 329.125 C5.71987497 329.29049691 4.12706501 329.4542149 2.53417969 329.6171875 C1.20371613 329.75423096 1.20371613 329.75423096 -0.15362549 329.89404297 C-12.31393766 331.0024284 -20.34537151 327.88160085 -30.6875 322.125 C-31.6775 321.795 -32.6675 321.465 -33.6875 321.125 C-34.6875 320.125 -35.6875 319.125 -36.6875 318.125 C-37.574375 317.609375 -38.46125 317.09375 -39.375 316.5625 C-40.5196875 315.8509375 -40.5196875 315.8509375 -41.6875 315.125 C-41.6875 314.465 -41.6875 313.805 -41.6875 313.125 C-42.3475 313.125 -43.0075 313.125 -43.6875 313.125 C-43.6875 312.135 -43.6875 311.145 -43.6875 310.125 C-44.26113281 309.89554687 -44.83476562 309.66609375 -45.42578125 309.4296875 C-48.277472 307.78467073 -49.8366943 305.82751978 -51.875 303.25 C-52.56980469 302.38632812 -53.26460937 301.52265625 -53.98046875 300.6328125 C-55.56596646 298.30354584 -56.09215684 296.80705102 -56.6875 294.125 C-57.3475 293.795 -58.0075 293.465 -58.6875 293.125 C-65.23797072 279.16325952 -65.82842989 264.67654835 -65.71484375 249.546875 C-65.67426829 243.0498834 -65.69552701 236.55869418 -65.8125 230.0625 C-65.81000244 228.93287842 -65.80750488 227.80325684 -65.80493164 226.6394043 C-65.99012271 218.79345662 -67.71281905 213.28365501 -72.6875 207.125 C-75.68121105 204.73884998 -75.68121105 204.73884998 -78.6875 203.125 C-79.30625 202.444375 -79.925 201.76375 -80.5625 201.0625 C-84.54413608 197.43218475 -89.30582687 196.3032804 -94.5625 195.625 C-95.59375 195.46 -96.625 195.295 -97.6875 195.125 C-103.75897857 186.01778215 -100.71895922 168.38341295 -100.4894104 157.60787964 C-100.45477298 155.95116841 -100.4246497 154.29435671 -100.39901733 152.63748169 C-100.35960523 150.27849535 -100.29997872 147.9208862 -100.234375 145.5625 C-100.22479263 144.84239243 -100.21521027 144.12228485 -100.20533752 143.38035583 C-100.13574219 141.37109375 -100.13574219 141.37109375 -99.6875 138.125 C-96.71789305 136.14526203 -95.40430218 135.7737388 -92 135.25 C-83.69831804 133.70099812 -77.44441804 129.99241563 -71.5625 123.9375 C-65.27744022 114.50991032 -65.57312238 103.02755365 -65.6953125 92.078125 C-65.70696693 91.0183419 -65.70696693 91.0183419 -65.71885681 89.93714905 C-65.75539271 87.0242452 -65.79679386 84.11170051 -65.85888672 81.19921875 C-66.2901141 59.68630239 -62.25605914 39.78331147 -47.6875 23.125 C-47.0275 23.125 -46.3675 23.125 -45.6875 23.125 C-45.44 22.50625 -45.1925 21.8875 -44.9375 21.25 C-43.48121361 18.77431313 -42.30937494 18.17374998 -39.6875 17.125 C-39.6875 16.465 -39.6875 15.805 -39.6875 15.125 C-28.66108538 6.74190396 -13.95766629 -0.03126017 0 0 Z " fill="#7DB243" transform="translate(199.6875,100.875)"/>
<path d="M0 0 C15.81055717 0.17241611 31.5485952 7.92956334 43.25 18.3125 C43.83910156 18.80878906 44.42820312 19.30507812 45.03515625 19.81640625 C53.85270761 27.83053607 59.92146159 38.99546941 63.25 50.3125 C63.8378125 52.1378125 63.8378125 52.1378125 64.4375 54 C66.21400994 61.24269437 66.39258862 68.35352801 66.42578125 75.76953125 C66.44897832 77.78972397 66.47309561 79.8099063 66.49804688 81.83007812 C66.53308484 84.97638968 66.56248854 88.12231617 66.57592773 91.26879883 C66.54454678 108.92271736 66.54454678 108.92271736 72.9375 125.125 C80.57514955 132.34980362 88.03050397 135.04150088 98.25 137.3125 C98.25 156.7825 98.25 176.2525 98.25 196.3125 C95.94 196.3125 93.63 196.3125 91.25 196.3125 C82.0304575 198.5513331 75.0691968 203.91010246 70.0703125 211.8984375 C65.86269263 219.84242908 66.35769902 228.10946 66.375 236.875 C66.35682613 238.52281794 66.33600897 240.17060892 66.3125 241.81835938 C66.24352297 247.34486121 66.22080141 252.8698738 66.28686523 258.39648438 C66.34747061 263.61756236 66.00004212 268.54806454 65.0625 273.6875 C64.9294043 274.41791504 64.79630859 275.14833008 64.65917969 275.90087891 C60.91795948 294.96268878 49.61892096 310.10091039 33.75 321 C28.70490982 324.3125 28.70490982 324.3125 25.25 324.3125 C24.92 324.9725 24.59 325.6325 24.25 326.3125 C14.81506879 330.55744442 5.38419201 331.0582005 -4.75 330.3125 C-5.41 329.9825 -6.07 329.6525 -6.75 329.3125 C-6.77528903 321.65869856 -6.79284104 314.00490783 -6.80493164 306.35107422 C-6.8099703 303.74560137 -6.8168013 301.14013137 -6.82543945 298.53466797 C-6.83752544 294.79654236 -6.84323288 291.05845403 -6.84765625 287.3203125 C-6.85281754 286.14945099 -6.85797882 284.97858948 -6.86329651 283.77224731 C-6.86337204 282.69127777 -6.86344757 281.61030823 -6.86352539 280.49658203 C-6.865746 279.54171906 -6.86796661 278.58685608 -6.87025452 277.60305786 C-6.75 275.3125 -6.75 275.3125 -5.75 273.3125 C-3.6328125 272.890625 -3.6328125 272.890625 -0.875 272.5625 C7.48740117 271.15970448 15.78375411 267.42862516 20.93301392 260.43284607 C25.61542837 252.89416423 26.83581971 245.01901479 26.7890625 236.30859375 C26.80085541 235.3046608 26.81264832 234.30072784 26.82479858 233.26637268 C26.85973697 230.09408705 26.86919362 226.92246137 26.875 223.75 C26.89144131 220.57416737 26.91367557 217.39862111 26.94662476 214.22291565 C26.9659753 212.25842137 26.97562069 210.29379685 26.97354126 208.32920837 C27.02138384 202.1092926 27.81665831 196.36180614 29.25 190.3125 C29.4871875 189.30960938 29.724375 188.30671875 29.96875 187.2734375 C31.89019157 180.91346589 34.69987034 175.48726287 38.1875 169.875 C38.81591797 168.86348877 38.81591797 168.86348877 39.45703125 167.83154297 C42.03215159 163.83390856 44.87709152 160.68540848 48.25 157.3125 C48.33521962 153.81849539 47.58039454 152.66291845 45.1875 150.125 C44.548125 149.526875 43.90875 148.92875 43.25 148.3125 C43.25 147.6525 43.25 146.9925 43.25 146.3125 C42.59 146.3125 41.93 146.3125 41.25 146.3125 C31.83439577 135.62675561 27.21974496 118.96133125 27.07421875 104.953125 C27.03844727 103.15488281 27.03844727 103.15488281 27.00195312 101.3203125 C26.95925529 98.83089919 26.92785867 96.34126437 26.90820312 93.8515625 C26.73811269 86.4625175 26.16788232 79.75839902 22.25 73.3125 C20.765 72.3225 20.765 72.3225 19.25 71.3125 C19.25 70.3225 19.25 69.3325 19.25 68.3125 C18.63125 68.003125 18.0125 67.69375 17.375 67.375 C16 66.6875 14.625 66 13.25 65.3125 C13.25 64.6525 13.25 63.9925 13.25 63.3125 C7.20942424 61.04192897 1.68681228 59.82335812 -4.75 59.3125 C-7.325194 54.35130992 -7.2459936 49.27844884 -7.4375 43.8125 C-7.49719971 42.26647095 -7.49719971 42.26647095 -7.55810547 40.68920898 C-7.96243757 27.66642655 -7.94890109 14.29265541 -6.75 1.3125 C-4.95881557 -0.47868443 -2.4251867 0.05511788 0 0 Z " fill="#7DB244" transform="translate(311.75,100.6875)"/>
<path d="M0 0 C7.15595346 0.70156407 14.01855181 2.30785021 21 4 C18.08981116 20.05572479 14.7418453 36.00005465 11.25 51.9375 C7.90742137 67.19398055 4.61854181 82.45897862 1.4375 97.75 C-2.64900374 117.3834487 -6.83499234 136.99467208 -11.05371094 156.60009766 C-12.37311511 162.73254671 -13.68682669 168.86621389 -15 175 C-16.051875 174.67 -17.10375 174.34 -18.1875 174 C-21.38873357 173.16033218 -23.7411008 172.80249096 -27 173 C-27 172.34 -27 171.68 -27 171 C-28.9490625 170.814375 -28.9490625 170.814375 -30.9375 170.625 C-33.15234375 170.4140625 -33.15234375 170.4140625 -35 170 C-35.33 169.34 -35.66 168.68 -36 168 C-35.34 168 -34.68 168 -34 168 C-34.20625 167.443125 -34.4125 166.88625 -34.625 166.3125 C-35.11473307 163.29247939 -34.13637506 161.84093765 -33 159 C-32.7990011 156.88951153 -32.59840318 154.77898365 -32.40039062 152.66821289 C-31.94263213 149.61769911 -31.12044661 146.82139348 -30.21875 143.87109375 C-27.8719124 135.8188682 -26.09405149 127.68686725 -24.39013672 119.47753906 C-23.87535036 117.00168503 -23.35033252 114.52815634 -22.82421875 112.0546875 C-21.06228454 103.68471742 -19.50898286 95.38134791 -18.49658203 86.8828125 C-18.00211116 84.01225592 -17.10131824 81.68359543 -16 79 C-15.79969336 76.93016472 -15.60108292 74.86014052 -15.4140625 72.7890625 C-14.89257032 69.27636987 -13.9598955 65.91206908 -13 62.5 C-11.87468779 58.49249049 -10.81154086 54.604359 -10.5 50.4375 C-10.10258407 45.19160973 -8.41431886 40.32353072 -6.9140625 35.3046875 C-6.18587126 32.6719961 -5.65906256 30.26635478 -5.375 27.5625 C-5 24 -5 24 -4.078125 20.80078125 C-2.93274827 16.76291328 -2.11958597 12.75061408 -1.375 8.625 C-1.2409375 7.90183594 -1.106875 7.17867187 -0.96875 6.43359375 C-0.2885862 3.23763765 -0.2885862 3.23763765 0 0 Z " fill="#020301" transform="translate(263,169)"/>
<path d="M0 0 C2.32223242 9.07565241 3.82465017 19.15884802 0 28 C-8.30642078 40.86566498 -21.4494076 51.14364343 -33 61 C-31.56160439 64.03350208 -30.31919127 65.83097994 -27.6875 67.9375 C-24.5989853 70.48972449 -21.70973857 73.04392156 -19 76 C-19 76.66 -19 77.32 -19 78 C-18.360625 78.268125 -17.72125 78.53625 -17.0625 78.8125 C-15 80 -15 80 -14 83 C-11.99983534 84.20882096 -11.99983534 84.20882096 -10 85 C-10 85.66 -10 86.32 -10 87 C-9.46375 87.20625 -8.9275 87.4125 -8.375 87.625 C-4.8188491 89.6838242 -2.06280663 91.41864003 0 95 C0.75166293 99.96399712 0.56603116 104.87454905 0.375 109.875 C0.34487105 111.24473324 0.31750036 112.61453009 0.29296875 113.984375 C0.22240183 117.32454247 0.12383806 120.66145291 0 124 C-4.77407549 120.02220224 -9.26603679 115.86424613 -13.625 111.4375 C-14.44484375 110.61088867 -14.44484375 110.61088867 -15.28125 109.76757812 C-16.36132736 108.67845706 -17.44044522 107.58838355 -18.51855469 106.49731445 C-19.77649117 105.22590304 -21.03999561 103.96000439 -22.3046875 102.6953125 C-24.6986478 100.3013522 -27.08447349 97.89968902 -29.46875 95.49609375 C-31.14576874 93.8098316 -32.82285386 92.12363544 -34.5 90.4375 C-35.34175781 89.58736328 -36.18351562 88.73722656 -37.05078125 87.86132812 C-37.86933594 87.03955078 -38.68789062 86.21777344 -39.53125 85.37109375 C-40.26923828 84.62786865 -41.00722656 83.88464355 -41.76757812 83.11889648 C-44.07609826 80.92777157 -46.50661508 78.97564855 -49 77 C-50.15906655 75.73881305 -51.28628296 74.4473929 -52.375 73.125 C-55.62755493 69.30771575 -59.11784351 66.16910734 -63 63 C-61.92587492 59.77762476 -61.36773396 59.25808673 -58.8125 57.25 C-56.28888438 55.17263348 -54.13158105 53.09200843 -52.0625 50.5625 C-49.3143148 47.22803529 -46.22995255 44.54324249 -42.94140625 41.75390625 C-40.53559299 39.58044518 -38.55045868 37.18334945 -36.49609375 34.68359375 C-34.43934384 32.36907884 -32.09856829 30.49378609 -29.71484375 28.52734375 C-27.97591854 26.9785516 -26.53980331 25.36008588 -25.0625 23.5625 C-22.3143148 20.22803529 -19.22995255 17.54324249 -15.94140625 14.75390625 C-13.54408368 12.58811584 -11.56520037 10.1997076 -9.515625 7.7109375 C-2.68493151 0 -2.68493151 0 0 0 Z " fill="#020201" transform="translate(218,194)"/>
<path d="M0 0 C3.2432402 1.52573918 5.04333863 2.95551964 7.3125 5.75 C9.58456671 8.44443808 11.83835714 10.82653318 14.5625 13.0625 C17.58818351 15.54908622 19.98628717 18.27117569 22.47265625 21.28515625 C24.0214484 23.02408146 25.63991412 24.46019669 27.4375 25.9375 C30.77196471 28.6856852 33.45675751 31.77004745 36.24609375 35.05859375 C38.41955482 37.46440701 40.81665055 39.44954132 43.31640625 41.50390625 C45.06558432 43.05828027 46.511889 44.69610948 48 46.5 C50.52582786 49.55793559 53.26834777 52.05516749 56.3203125 54.578125 C58.69323679 56.586833 60.83558984 58.77000165 63 61 C61.92587492 64.22237524 61.36773396 64.74191327 58.8125 66.75 C56.28888438 68.82736652 54.13158105 70.90799157 52.0625 73.4375 C50.00293322 75.93779406 47.86470486 78.06267823 45.390625 80.15112305 C40.61498653 84.27873837 36.15246935 88.68568262 31.6875 93.14453125 C30.40601074 94.42102791 30.40601074 94.42102791 29.09863281 95.72331238 C27.30907803 97.50783629 25.52084704 99.29368863 23.73388672 101.08081055 C20.98555177 103.82693662 18.22928975 106.5649417 15.47265625 109.30273438 C13.73128266 111.04117781 11.99038001 112.78009313 10.25 114.51953125 C9.42201904 115.34032669 8.59403809 116.16112213 7.7409668 117.00679016 C6.60848511 118.1438868 6.60848511 118.1438868 5.453125 119.30395508 C4.78442383 119.97123123 4.11572266 120.63850739 3.42675781 121.32600403 C1.78377767 122.88710366 1.78377767 122.88710366 2 125 C1.01 124.67 0.02 124.34 -1 124 C-0.91919412 119.41594072 -0.80634079 114.83321856 -0.6875 110.25 C-0.66494141 108.94804687 -0.64238281 107.64609375 -0.61914062 106.3046875 C-0.58369141 105.05429687 -0.54824219 103.80390625 -0.51171875 102.515625 C-0.48553467 101.36352539 -0.45935059 100.21142578 -0.43237305 99.02441406 C0.0336086 95.76491059 0.68791127 94.31173438 3 92 C3.66 92 4.32 92 5 92 C5.4021875 91.0409375 5.4021875 91.0409375 5.8125 90.0625 C7 88 7 88 10 87 C11.20882096 84.99983534 11.20882096 84.99983534 12 83 C12.66 83 13.32 83 14 83 C14.268125 82.360625 14.53625 81.72125 14.8125 81.0625 C16 79 16 79 19 78 C19.495 76.515 19.495 76.515 20 75 C21.671875 73.3515625 21.671875 73.3515625 23.75 71.625 C26.99668841 68.87465784 30.03905179 66.05347784 33 63 C31.69330029 60.05403994 30.39295199 58.20899117 27.92724609 56.14453125 C27.30690994 55.6135936 26.68657379 55.08265594 26.04743958 54.53562927 C25.37951889 53.96699661 24.71159821 53.39836395 24.0234375 52.8125 C-0.88980652 30.77963002 -0.88980652 30.77963002 -2.05078125 19.72265625 C-2.26419154 13.02408378 -1.54290641 6.51849246 0 0 Z " fill="#020201" transform="translate(294,194)"/>
<path d="M0 0 C5.87715245 11.36249473 2.64726217 25.62185161 -1.06640625 37.375 C-7.61643164 53.97704454 -19.22058835 67.50152058 -35 76 C-35.99 76 -36.98 76 -38 76 C-38.33 76.66 -38.66 77.32 -39 78 C-48.43493121 82.24494442 -57.86580799 82.7457005 -68 82 C-68.66 81.67 -69.32 81.34 -70 81 C-70 73.08 -70 65.16 -70 57 C-69.67 57.99 -69.34 58.98 -69 60 C-66.16658768 59.68820356 -63.33327045 59.37558083 -60.5 59.0625 C-59.31277344 58.93198242 -59.31277344 58.93198242 -58.1015625 58.79882812 C-53.06184897 58.24115491 -48.02989934 57.64027388 -43 57 C-43 56.34 -43 55.68 -43 55 C-40.71070947 53.82845707 -38.41881638 52.66261926 -36.125 51.5 C-35.47402344 51.16613281 -34.82304687 50.83226562 -34.15234375 50.48828125 C-29.2265625 48 -29.2265625 48 -27 48 C-27 47.34 -27 46.68 -27 46 C-25.02 45.505 -25.02 45.505 -23 45 C-23 44.34 -23 43.68 -23 43 C-22.34 43 -21.68 43 -21 43 C-21 42.34 -21 41.68 -21 41 C-18.73743814 38.61174026 -16.40864002 36.3591079 -13.9375 34.1875 C-11.20132029 31.09826485 -9.67833784 27.7486962 -8 24 C-7.58492188 23.08734375 -7.16984375 22.1746875 -6.7421875 21.234375 C-3.70792611 14.29372919 -1.61304123 7.39638416 0 0 Z " fill="#B5E1E6" transform="translate(375,349)"/>
<path d="M0 0 C3.56005099 2.67003824 3.91353716 6.19523861 4.75 10.3125 C8.06765104 24.87670647 15.44396277 39.29779598 28 48 C29.485 48.495 29.485 48.495 31 49 C31 49.66 31 50.32 31 51 C31.639375 51.226875 32.27875 51.45375 32.9375 51.6875 C36 53 36 53 37.703125 54.10546875 C47.47370921 60.35633463 59.71367286 61.58920911 71 63 C71 69.6 71 76.2 71 83 C55.88427764 84.67952471 46.98851344 83.22962276 34 76 C33.01 75.67 32.02 75.34 31 75 C30 74 29 73 28 72 C27.113125 71.484375 26.22625 70.96875 25.3125 70.4375 C24.549375 69.963125 23.78625 69.48875 23 69 C23 68.34 23 67.68 23 67 C22.34 67 21.68 67 21 67 C21 66.01 21 65.02 21 64 C20.42636719 63.77054687 19.85273438 63.54109375 19.26171875 63.3046875 C16.410028 61.65967073 14.8508057 59.70251978 12.8125 57.125 C11.77029297 55.82949219 11.77029297 55.82949219 10.70703125 54.5078125 C9.12153354 52.17854584 8.59534316 50.68205102 8 48 C7.34 47.67 6.68 47.34 6 47 C-1.11518869 31.83461386 -1.49753067 16.35141593 0 0 Z " fill="#B5E1E7" transform="translate(135,347)"/>
<path d="M0 0 C0.33 0 0.66 0 1 0 C1.02528903 7.65380144 1.04284104 15.30759217 1.05493164 22.96142578 C1.0599703 25.56689863 1.0668013 28.17236863 1.07543945 30.77783203 C1.08752544 34.51595764 1.09323288 38.25404597 1.09765625 41.9921875 C1.10281754 43.16304901 1.10797882 44.33391052 1.11329651 45.54025269 C1.11337204 46.62122223 1.11344757 47.70219177 1.11352539 48.81591797 C1.115746 49.77078094 1.11796661 50.72564392 1.12025452 51.70944214 C1 54 1 54 0 56 C-2.00390625 56.4921875 -2.00390625 56.4921875 -4.5625 56.875 C-14.46543833 58.73180094 -22.75350327 63.93946583 -28.609375 72.296875 C-29.44852376 73.68887471 -30.2588913 75.09900887 -31.02734375 76.53125 C-31.34832031 77.0159375 -31.66929687 77.500625 -32 78 C-32.66 78 -33.32 78 -34 78 C-34 78.66 -34 79.32 -34 80 C-34.66 80 -35.32 80 -36 80 C-36.42074107 67.58034679 -36.52214931 56.69753428 -28.5 46.4609375 C-27 45 -27 45 -24 44 C-23.317058 42.67492927 -22.65164426 41.34073934 -22 40 C-16.02055256 34.45998702 -8.94267169 33.83292424 -1 32 C-0.67 21.44 -0.34 10.88 0 0 Z " fill="#B6E1E6" transform="translate(206,103)"/>
<path d="M0 0 C8.89124723 -0.6682357 14.77153009 0.73935426 21.8671875 6.2109375 C30.00083658 13.22270394 34.14272814 19.39119124 36 30 C36.22180188 33.50603209 36.19134398 36.98887229 36.125 40.5 C36.11597656 41.4178125 36.10695313 42.335625 36.09765625 43.28125 C36.07432432 45.52111556 36.04159235 47.76041183 36 50 C35.67 50 35.34 50 35 50 C34.67 54.62 34.34 59.24 34 64 C33.67 64 33.34 64 33 64 C32.97421875 62.88882813 32.9484375 61.77765625 32.921875 60.6328125 C32.60631905 48.29521858 32.60631905 48.29521858 28 37 C27.01 36.34 26.02 35.68 25 35 C25 34.01 25 33.02 25 32 C24.071875 31.5359375 24.071875 31.5359375 23.125 31.0625 C21.75 30.375 20.375 29.6875 19 29 C19 28.34 19 27.68 19 27 C12.95942424 24.72942897 7.43681228 23.51085812 1 23 C-0.98729453 18.86045764 -1.24123674 15.50512266 -1.1875 10.9375 C-1.18105469 9.72964844 -1.17460937 8.52179688 -1.16796875 7.27734375 C-1.03328371 4.64941939 -0.7772803 2.49351521 0 0 Z " fill="#B5E1E4" transform="translate(306,137)"/>
<path d="M0 0 C7.77777778 1.11111111 7.77777778 1.11111111 11 2.5 C14.63143274 3.95823615 18.10929848 4.52358757 22 5 C23 6 23 6 23.12025452 8.20826721 C23.1169236 9.67053993 23.1169236 9.67053993 23.11352539 11.16235352 C23.11344986 12.26341934 23.11337433 13.36448517 23.11329651 14.49891663 C23.10813522 15.6968132 23.10297394 16.89470978 23.09765625 18.12890625 C23.0962413 19.34827377 23.09482635 20.5676413 23.09336853 21.82395935 C23.08774967 25.7368307 23.07519396 29.64964581 23.0625 33.5625 C23.05748743 36.20768147 23.0529241 38.85286383 23.04882812 41.49804688 C23.03777411 47.99871726 23.02101764 54.49935461 23 61 C22.67 61 22.34 61 22 61 C22 54.4 22 47.8 22 41 C19.36 41 16.72 41 14 41 C9.38 40.01 4.76 39.02 0 38 C0 25.46 0 12.92 0 0 Z " fill="#5B8F45" transform="translate(184,369)"/>
<path d="M0 0 C0 7.92 0 15.84 0 24 C-2.31 24 -4.62 24 -7 24 C-15.21422187 25.99470546 -22.07908213 30.49015689 -26.6875 37.60546875 C-27.68730976 39.33763916 -28.65447485 41.08932964 -29.578125 42.86328125 C-31.16070677 45.24150166 -32.36975033 45.98274532 -35 47 C-35.7223491 22.44013075 -35.7223491 22.44013075 -27.015625 12.10546875 C-18.91681162 3.64566175 -11.72845972 0 0 0 Z " fill="#B4E0E5" transform="translate(410,273)"/>
<path d="M0 0 C12.47892177 0.46650175 20.29140992 3.9766416 29 13 C34.21478382 19.68562028 35.30628374 25.64750738 35.125 33.875 C35.11597656 34.65875 35.10695312 35.4425 35.09765625 36.25 C35.07428063 38.16680055 35.03841653 40.08344191 35 42 C34.01 42.33 33.02 42.66 32 43 C29.94615717 41.15154145 28.62882599 39.41849406 27.125 37.0625 C24.96996619 33.95671599 23.05776949 32.18412106 20 30 C19.030625 29.29875 18.06125 28.5975 17.0625 27.875 C12.81662268 25.27548327 9.18927001 24.13874817 4.25 23.5625 C3.1775 23.376875 2.105 23.19125 1 23 C-1.51563705 19.22654443 -1.23609937 17.12265107 -1.1875 12.625 C-1.18105469 11.31789063 -1.17460938 10.01078125 -1.16796875 8.6640625 C-1.02905592 5.63382452 -0.70901395 2.93815381 0 0 Z " fill="#B5E1E6" transform="translate(101,273)"/>
<path d="M0 0 C0 12.21 0 24.42 0 37 C-10.125 39.25 -10.125 39.25 -16.0625 39.125 C-17.75052734 39.09792969 -17.75052734 39.09792969 -19.47265625 39.0703125 C-20.30667969 39.04710937 -21.14070313 39.02390625 -22 39 C-22.89264236 31.64739235 -23.15350825 24.40264266 -23.125 17 C-23.12886719 15.96488281 -23.13273437 14.92976563 -23.13671875 13.86328125 C-23.13542969 12.87714844 -23.13414062 11.89101563 -23.1328125 10.875 C-23.13168457 9.98554688 -23.13055664 9.09609375 -23.12939453 8.1796875 C-23 6 -23 6 -22 4 C-19.70703125 3.47265625 -19.70703125 3.47265625 -16.8125 3.0625 C-13.25354381 2.4915937 -10.88572022 1.94286011 -7.625 0.3125 C-5 -1 -5 -1 0 0 Z " fill="#598C41" transform="translate(328,370)"/>
<path d="M0 0 C5.87715245 11.36249473 2.64726217 25.62185161 -1.06640625 37.375 C-6.82019938 51.9588717 -16.55390069 64.70347064 -30 73 C-30.66 73 -31.32 73 -32 73 C-30.56970039 69.52964148 -28.91913117 67.96036258 -25.875 65.8125 C-20.97172737 62.13305879 -16.56646864 58.01443547 -13 53 C-13 52.01 -13 51.02 -13 50 C-14.98 50.495 -14.98 50.495 -17 51 C-17 50.34 -17 49.68 -17 49 C-18.32 48.67 -19.64 48.34 -21 48 C-20.73375272 42.67505442 -18.67299133 39.88627769 -15.48046875 35.8671875 C-13.7467493 33.68059675 -12.36514972 31.43352777 -11 29 C-10.62101562 28.37867188 -10.24203125 27.75734375 -9.8515625 27.1171875 C-4.86222751 18.68067561 -2.19282142 9.50222614 0 0 Z " fill="#B5E1E8" transform="translate(375,349)"/>
<path d="M0 0 C3.62009839 2.69450505 4.08661729 6.45446006 5 10.625 C5.33582619 12.06573982 5.67435672 13.50585203 6.015625 14.9453125 C6.17998047 15.64043945 6.34433594 16.33556641 6.51367188 17.05175781 C7.44572524 20.78558606 8.70667768 24.37869751 10 28 C7 27 7 27 5 24 C5 29.28 5 34.56 5 40 C5.66 40 6.32 40 7 40 C9.04169485 42.90548882 10 44.40142046 10 48 C8.1640625 47.87890625 8.1640625 47.87890625 6 47 C-1.81917794 32.63604053 -1.44476268 15.77524656 0 0 Z " fill="#B5DFDA" transform="translate(135,347)"/>
<path d="M0 0 C0.33 0 0.66 0 1 0 C1.02528903 7.65380144 1.04284104 15.30759217 1.05493164 22.96142578 C1.0599703 25.56689863 1.0668013 28.17236863 1.07543945 30.77783203 C1.08752544 34.51595764 1.09323288 38.25404597 1.09765625 41.9921875 C1.10281754 43.16304901 1.10797882 44.33391052 1.11329651 45.54025269 C1.11337204 46.62122223 1.11344757 47.70219177 1.11352539 48.81591797 C1.115746 49.77078094 1.11796661 50.72564392 1.12025452 51.70944214 C1 54 1 54 0 56 C-2.00390625 56.4921875 -2.00390625 56.4921875 -4.5625 56.875 C-14.46543833 58.73180094 -22.75350327 63.93946583 -28.609375 72.296875 C-29.44852376 73.68887471 -30.2588913 75.09900887 -31.02734375 76.53125 C-31.34832031 77.0159375 -31.66929687 77.500625 -32 78 C-32.66 78 -33.32 78 -34 78 C-34 78.66 -34 79.32 -34 80 C-34.66 80 -35.32 80 -36 80 C-36.02710123 77.4374282 -36.04688771 74.87514635 -36.0625 72.3125 C-36.07087891 71.59126953 -36.07925781 70.87003906 -36.08789062 70.12695312 C-36.10543632 66.28444618 -35.93524221 62.73360474 -35 59 C-34.67 59 -34.34 59 -34 59 C-33.88861841 64.45769811 -34.08342019 69.61509359 -35 75 C-32.79602514 72.86201241 -30.83222794 70.61380186 -28.875 68.25 C-20.68872753 58.891798 -12.69519489 55.34148425 -1 52 C-0.67 46.06 -0.34 40.12 0 34 C-1.98 34 -3.96 34 -6 34 C-6 33.67 -6 33.34 -6 33 C-3.525 32.505 -3.525 32.505 -1 32 C-0.67 21.44 -0.34 10.88 0 0 Z " fill="#99CB9F" transform="translate(206,103)"/>
<path d="M0 0 C0.33 0 0.66 0 1 0 C1 18.48 1 36.96 1 56 C0.01 56.495 0.01 56.495 -1 57 C-1.144375 55.865625 -1.28875 54.73125 -1.4375 53.5625 C-1.61171478 50.19222799 -1.61171478 50.19222799 -3 49 C-3.11364551 46.63082529 -3.16418872 44.29203805 -3.16796875 41.921875 C-3.17129715 41.19945618 -3.17462555 40.47703735 -3.17805481 39.73272705 C-3.18313397 38.19259274 -3.18546283 36.65244736 -3.18530273 35.11230469 C-3.18745235 32.8012343 -3.20549187 30.49067088 -3.22460938 28.1796875 C-3.30635974 6.61271948 -3.30635974 6.61271948 0 0 Z " fill="#82B058" transform="translate(137,152)"/>
<path d="M0 0 C0.33 0 0.66 0 1 0 C1.33 2.64 1.66 5.28 2 8 C2.66 7.01 3.32 6.02 4 5 C4 19.52 4 34.04 4 49 C3.34 49 2.68 49 2 49 C0 47 0 47 -0.24050903 44.97518921 C-0.23606781 44.14468048 -0.23162659 43.31417175 -0.22705078 42.45849609 C-0.22689972 41.51767181 -0.22674866 40.57684753 -0.22659302 39.60751343 C-0.21627045 38.58976837 -0.20594788 37.57202332 -0.1953125 36.5234375 C-0.1924826 35.48305328 -0.18965271 34.44266907 -0.18673706 33.37075806 C-0.17551704 30.03872306 -0.15040915 26.70695414 -0.125 23.375 C-0.11497256 21.11979554 -0.1058463 18.86458688 -0.09765625 16.609375 C-0.07557178 11.07282546 -0.04207639 5.53643173 0 0 Z " fill="#81AE58" transform="translate(374,161)"/>
<path d="M0 0 C0.66 0.33 1.32 0.66 2 1 C2 16.18 2 31.36 2 47 C-2.50011404 41.37485745 -2.50011404 41.37485745 -2.609375 35.7109375 C-2.64160156 34.52242188 -2.67382812 33.33390625 -2.70703125 32.109375 C-2.72121094 30.87703125 -2.73539063 29.6446875 -2.75 28.375 C-2.77964844 27.13492187 -2.80929688 25.89484375 -2.83984375 24.6171875 C-2.93585426 20.41101295 -3 16.20726607 -3 12 C-2.01 12 -1.02 12 0 12 C0 8.04 0 4.08 0 0 Z " fill="#85B55D" transform="translate(136,303)"/>
<path d="M0 0 C0.33 0 0.66 0 1 0 C1 1.98 1 3.96 1 6 C1.66 6 2.32 6 3 6 C3.02465881 9.96930989 3.04284023 13.93859034 3.05493164 17.90795898 C3.05997057 19.25920386 3.06680177 20.61044326 3.07543945 21.96166992 C3.08752419 23.90020434 3.09269828 25.838778 3.09765625 27.77734375 C3.10289307 28.94515381 3.10812988 30.11296387 3.11352539 31.31616211 C3 34 3 34 2 35 C2.18479421 38.40549328 2.45584539 41.79021541 2.77148438 45.18554688 C2.92400189 47.11918852 2.96895306 49.0606012 3 51 C2.34 51.66 1.68 52.32 1 53 C1 54.32 1 55.64 1 57 C0.34 57 -0.32 57 -1 57 C-1.33 57.66 -1.66 58.32 -2 59 C-2.66 58.67 -3.32 58.34 -4 58 C-3.78937424 57.33767868 -3.57874847 56.67535736 -3.36174011 55.9929657 C-1.30506615 49.09428235 -0.53549648 42.82143271 -0.48828125 35.64453125 C-0.47033005 34.61688156 -0.45237885 33.58923187 -0.43388367 32.53044128 C-0.38028012 29.29116763 -0.34604657 26.05203697 -0.3125 22.8125 C-0.27928276 20.5982876 -0.24478912 18.38409395 -0.20898438 16.16992188 C-0.12458332 10.78007641 -0.0560253 5.39021121 0 0 Z " fill="#83B362" transform="translate(339,301)"/>
<path d="M0 0 C0.33 0 0.66 0 1 0 C1.33 4.95 1.66 9.9 2 15 C2.99 15 3.98 15 5 15 C4.86034706 19.35438777 4.71217758 23.70844619 4.5625 28.0625 C4.52318359 29.29162109 4.48386719 30.52074219 4.44335938 31.78710938 C4.23994142 37.59234494 4.01223898 43.2753207 3 49 C2.01 48.34 1.02 47.68 0 47 C-0.36076355 44.97518921 -0.36076355 44.97518921 -0.34057617 42.45849609 C-0.34034958 41.51767181 -0.34012299 40.57684753 -0.33988953 39.60751343 C-0.32440567 38.58976837 -0.30892181 37.57202332 -0.29296875 36.5234375 C-0.28872391 35.48305328 -0.28447906 34.44266907 -0.28010559 33.37075806 C-0.26327482 30.03857853 -0.22561422 26.70699759 -0.1875 23.375 C-0.17245887 21.11980038 -0.15876947 18.86459131 -0.14648438 16.609375 C-0.11335699 11.07271145 -0.0631142 5.53639848 0 0 Z " fill="#82B15B" transform="translate(374,304)"/>
<path d="M0 0 C1.48168945 1.11254883 1.48168945 1.11254883 3 3 C3.34057617 5.8190918 3.34057617 5.8190918 3.29296875 9.19921875 C3.28330078 10.40771484 3.27363281 11.61621094 3.26367188 12.86132812 C3.23853516 14.12396484 3.21339844 15.38660156 3.1875 16.6875 C3.17396484 17.96173828 3.16042969 19.23597656 3.14648438 20.54882812 C3.11108199 23.69964057 3.0616979 26.84961045 3 30 C3.66 30 4.32 30 5 30 C5 31.32 5 32.64 5 34 C5.66 34.33 6.32 34.66 7 35 C5.02 35 3.04 35 1 35 C0.67 36.32 0.34 37.64 0 39 C-1.22869216 30.78141469 -0.9054935 22.70745441 -0.5625 14.4375 C-0.50915672 13.03322612 -0.45641764 11.62892916 -0.40429688 10.22460938 C-0.2754541 6.81613242 -0.14052672 3.40801187 0 0 Z " fill="#84B465" transform="translate(305,102)"/>
<path d="M0 0 C0.66 0 1.32 0 2 0 C2 13.53 2 27.06 2 41 C-1.35568516 37.64431484 -1.34705694 36.58535499 -1.36553955 32.04452515 C-1.35319275 31.25381622 -1.34084595 30.4631073 -1.328125 29.6484375 C-1.32531525 28.42648178 -1.32531525 28.42648178 -1.32244873 27.17984009 C-1.31573109 25.46002095 -1.30182222 23.74021702 -1.28125 22.02050781 C-1.25003676 19.37811199 -1.24027358 16.73631207 -1.234375 14.09375 C-1.22520743 12.42447184 -1.21483244 10.75519978 -1.203125 9.0859375 C-1.19887512 8.29118011 -1.19462524 7.49642273 -1.19024658 6.67758179 C-1.11716689 1.11716689 -1.11716689 1.11716689 0 0 Z " fill="#83B663" transform="translate(171,305)"/>
<path d="M0 0 C0.33 0.66 0.66 1.32 1 2 C1.66 2 2.32 2 3 2 C3 12.56 3 23.12 3 34 C4.98 34 6.96 34 9 34 C9 34.33 9 34.66 9 35 C6.69 35 4.38 35 2 35 C1.34 36.32 0.68 37.64 0 39 C-1.26187857 35.2143643 -1.01657797 31.76317551 -0.87890625 27.83203125 C-0.85529526 27.03721848 -0.83168427 26.2424057 -0.80735779 25.42350769 C-0.73081899 22.88631901 -0.64675272 20.3494431 -0.5625 17.8125 C-0.50926951 16.09181215 -0.45652917 14.37110906 -0.40429688 12.65039062 C-0.27521711 8.43339589 -0.13938609 4.21666615 0 0 Z " fill="#8ABE68" transform="translate(100,239)"/>
<path d="M0 0 C1.75570312 0.02707031 1.75570312 0.02707031 3.546875 0.0546875 C4.88492188 0.08949219 4.88492188 0.08949219 6.25 0.125 C7.73700668 3.09901336 7.25619932 6.07318926 7.12890625 9.3203125 C7.10529526 10.02775604 7.08168427 10.73519958 7.05735779 11.46408081 C6.98071166 13.72625755 6.89669188 15.98809273 6.8125 18.25 C6.75928023 19.7825353 6.70653982 21.31508734 6.65429688 22.84765625 C6.52509533 26.60698761 6.38927963 30.36602908 6.25 34.125 C5.26 34.62 5.26 34.62 4.25 35.125 C4.22494385 34.29250732 4.1998877 33.46001465 4.17407227 32.60229492 C4.07887306 29.51037167 3.97964328 26.41861148 3.87768555 23.3269043 C3.81312994 21.33196681 3.7532217 19.33688071 3.69335938 17.34179688 C3.65146484 16.08818359 3.60957031 14.83457031 3.56640625 13.54296875 C3.52974854 12.38563232 3.49309082 11.2282959 3.45532227 10.03588867 C3.36671491 7.0606554 3.36671491 7.0606554 2.25 4.125 C-2.04 3.465 -6.33 2.805 -10.75 2.125 C-6.52746115 0.01373057 -4.60998477 -0.0921997 0 0 Z " fill="#7EAD54" transform="translate(199.75,100.875)"/>
<path d="M0 0 C0.66 0 1.32 0 2 0 C-1.74434405 12.85119088 -12.86524255 23.95556161 -24 31 C-24.66 31 -25.32 31 -26 31 C-24.56970039 27.52964148 -22.91913117 25.96036258 -19.875 23.8125 C-11.9117601 17.80178527 -6.49092872 10.64392334 -1.4453125 2.08984375 C-0.96835937 1.40019531 -0.49140625 0.71054687 0 0 Z " fill="#A8D4C2" transform="translate(369,391)"/>
<path d="M0 0 C1.48168945 1.03051758 1.48168945 1.03051758 3 3 C3.26153069 5.58774771 3.34958438 7.92899653 3.29296875 10.51171875 C3.28872391 11.23994339 3.28447906 11.96816803 3.28010559 12.71846008 C3.26332733 15.04185127 3.22567855 17.3643715 3.1875 19.6875 C3.17245197 21.26365934 3.15876377 22.83983229 3.14648438 24.41601562 C3.11342685 28.27767877 3.06165194 32.13869178 3 36 C-3.35677664 26.46483504 -0.99961985 10.91476808 0 0 Z " fill="#A4CEB8" transform="translate(135,347)"/>
<path d="M0 0 C0.66 0.33 1.32 0.66 2 1 C1.90520011 5.07138546 1.79885859 9.14230374 1.68261719 13.21313477 C1.64474843 14.59293755 1.6098292 15.97282502 1.578125 17.3527832 C1.38285182 25.7525809 0.83946407 33.78941917 -1 42 C-1.33 42 -1.66 42 -2 42 C-2.07071442 38.03999254 -2.06490136 34.42758546 -1.46875 30.5 C-0.72279041 24.82885377 -1.1412023 19.19436506 -1.4375 13.5 C-1.48970703 12.39140625 -1.54191406 11.2828125 -1.59570312 10.140625 C-1.72437928 7.42672797 -1.85929406 4.71329542 -2 2 C-1.34 2 -0.68 2 0 2 C0 1.34 0 0.68 0 0 Z " fill="#83B464" transform="translate(172,181)"/>
<path d="M0 0 C3.69144984 0.57807939 5.40967914 2.05647438 8.0625 4.625 C14.01707962 10.10636799 20.70287772 14.49602054 28 18 C28 18.66 28 19.32 28 20 C20.38685389 18.30258773 13.0201788 13.87745968 7 9 C7 8.34 7 7.68 7 7 C6.34 7 5.68 7 5 7 C5 6.01 5 5.02 5 4 C4.360625 3.71125 3.72125 3.4225 3.0625 3.125 C1 2 1 2 0 0 Z " fill="#A3CEB9" transform="translate(151,407)"/>
<path d="M0 0 C0.33 0.99 0.66 1.98 1 3 C8.26 2.34 15.52 1.68 23 1 C16.53477751 5.31014833 10.55111342 5.20687982 3 5 C2.34 11.27 1.68 17.54 1 24 C0.67 24 0.34 24 0 24 C0 16.08 0 8.16 0 0 Z " fill="#9AC8A4" transform="translate(305,406)"/>
<path d="M0 0 C0.33 0.66 0.66 1.32 1 2 C-2.63 2.66 -6.26 3.32 -10 4 C-10.33 14.56 -10.66 25.12 -11 36 C-9.02 36 -7.04 36 -5 36 C-4.67 36.66 -4.34 37.32 -4 38 C-7.96 37.505 -7.96 37.505 -12 37 C-12 26.44 -12 15.88 -12 5 C-12.66 5 -13.32 5 -14 5 C-14 4.01 -14 3.02 -14 2 C-12.04396149 1.47061343 -10.08507711 0.95173199 -8.125 0.4375 C-7.03445312 0.14746094 -5.94390625 -0.14257812 -4.8203125 -0.44140625 C-2 -1 -2 -1 0 0 Z " fill="#80AF55" transform="translate(115,236)"/>
<path d="M0 0 C4.21268795 8.14453004 3.31173079 16.14581718 2 25 C1.67 25 1.34 25 1 25 C0.67 21.37 0.34 17.74 0 14 C-0.99 14 -1.98 14 -3 14 C-2.69147815 12.041036 -2.3780582 10.08284287 -2.0625 8.125 C-1.88847656 7.03445313 -1.71445312 5.94390625 -1.53515625 4.8203125 C-1 2 -1 2 0 0 Z " fill="#ACD7C3" transform="translate(375,349)"/>
<path d="M0 0 C0.33 0 0.66 0 1 0 C1 6.6 1 13.2 1 20 C0.67 20 0.34 20 0 20 C-0.33 24.62 -0.66 29.24 -1 34 C-1.33 34 -1.66 34 -2 34 C-2.07347656 32.26363281 -2.07347656 32.26363281 -2.1484375 30.4921875 C-2.22351478 28.9531033 -2.29906043 27.4140419 -2.375 25.875 C-2.42140625 24.73417969 -2.42140625 24.73417969 -2.46875 23.5703125 C-2.702369 19.05367842 -3.32654117 15.25847653 -5 11 C-4.01 10.67 -3.02 10.34 -2 10 C-1.67 10.66 -1.34 11.32 -1 12 C-0.67 8.04 -0.34 4.08 0 0 Z " fill="#9ACAA0" transform="translate(341,167)"/>
<path d="M0 0 C1.2039337 3.75399798 1.09877617 7.33217412 1.0625 11.25 C1.05347656 12.51328125 1.04445313 13.7765625 1.03515625 15.078125 C1.02355469 16.04234375 1.01195312 17.0065625 1 18 C1.99 18 2.98 18 4 18 C2.51153846 22.71346154 2.51153846 22.71346154 -0.078125 24.1640625 C-1.02945312 24.57785156 -1.02945312 24.57785156 -2 25 C-2.05437005 22.14557247 -2.09384974 19.29219924 -2.125 16.4375 C-2.14175781 15.63763672 -2.15851563 14.83777344 -2.17578125 14.01367188 C-2.21723982 8.93499665 -1.64056075 4.81188094 0 0 Z " fill="#ADD9C5" transform="translate(377,295)"/>
<path d="M0 0 C0.33 0 0.66 0 1 0 C1.33 9.57 1.66 19.14 2 29 C-1 26 -1 26 -1.35644531 23.59570312 C-1.34709961 22.66693359 -1.33775391 21.73816406 -1.328125 20.78125 C-1.32296875 19.76675781 -1.3178125 18.75226563 -1.3125 17.70703125 C-1.291875 16.64871094 -1.27125 15.59039062 -1.25 14.5 C-1.24484375 13.44167969 -1.2396875 12.38335937 -1.234375 11.29296875 C-1.15479604 3.46438811 -1.15479604 3.46438811 0 0 Z " fill="#81AF5D" transform="translate(135,319)"/>
<path d="M0 0 C2 2 2 2 2.22705078 4.15478516 C2.21657715 5.02409668 2.20610352 5.8934082 2.1953125 6.7890625 C2.18886719 7.73007813 2.18242187 8.67109375 2.17578125 9.640625 C2.15902344 10.62546875 2.14226562 11.6103125 2.125 12.625 C2.11597656 13.61757812 2.10695313 14.61015625 2.09765625 15.6328125 C2.07404116 18.08878134 2.04110799 20.54427168 2 23 C1.34 23 0.68 23 0 23 C-0.33 24.32 -0.66 25.64 -1 27 C-1.1723784 17.95971078 -0.6331684 9.01134307 0 0 Z " fill="#82B15C" transform="translate(340,185)"/>
<path d="M0 0 C0.99 0.33 1.98 0.66 3 1 C3 6.61 3 12.22 3 18 C0.43383368 14.15075052 0.44902324 11.5650696 0 7 C-0.99 7 -1.98 7 -3 7 C-2.625 4.0625 -2.625 4.0625 -2 1 C-1.34 0.67 -0.68 0.34 0 0 Z " fill="#B1DCD2" transform="translate(373,362)"/>
<path d="M0 0 C5.17404218 -0.77060203 7.63809716 0.05558142 11.875 3.1875 C14.62490673 5.32683422 15.8202029 6.3503208 16.7578125 9.73828125 C16.83773438 10.48464844 16.91765625 11.23101562 17 12 C16.34 12 15.68 12 15 12 C15 11.01 15 10.02 15 9 C14.38125 8.690625 13.7625 8.38125 13.125 8.0625 C11.75 7.375 10.375 6.6875 9 6 C9 5.34 9 4.68 9 4 C6.03 3.01 3.06 2.02 0 1 C0 0.67 0 0.34 0 0 Z " fill="#A5D0BA" transform="translate(316,160)"/>
<path d="M0 0 C0 0.33 0 0.66 0 1 C-3.3 1.66 -6.6 2.32 -10 3 C-10 13.23 -10 23.46 -10 34 C-10.33 34 -10.66 34 -11 34 C-11 23.11 -11 12.22 -11 1 C-4.25 -1.25 -4.25 -1.25 0 0 Z " fill="#537F43" transform="translate(318,375)"/>
<path d="M0 0 C0.66 0.33 1.32 0.66 2 1 C1.54625 1.37125 1.0925 1.7425 0.625 2.125 C-1.46998298 4.54228805 -2.01227116 6.97508042 -3 10 C-4.3125 12.375 -4.3125 12.375 -6 14 C-8.6875 14.25 -8.6875 14.25 -11 14 C-9.63055898 11.05043472 -8.12169591 8.47531189 -6 6 C-5.34 6 -4.68 6 -4 6 C-3.71125 5.38125 -3.4225 4.7625 -3.125 4.125 C-2 2 -2 2 0 0 Z " fill="#7DAC51" transform="translate(158,118)"/>
<path d="M0 0 C4.13405862 0.6079498 7.38204235 1.90962447 11 4 C13.29633824 7.44450737 13.54016485 9.93812283 14 14 C13.46375 13.2575 12.9275 12.515 12.375 11.75 C10.11111445 8.88113338 10.11111445 8.88113338 7 7 C3.9496962 4.96646413 2.1324234 2.95258624 0 0 Z " fill="#A4CEB9" transform="translate(117,299)"/>
<path d="M0 0 C3.63 0.33 7.26 0.66 11 1 C11 1.33 11 1.66 11 2 C8.94921875 2.22786458 6.8984375 2.45572917 4.84765625 2.68359375 C2.98859771 2.81886614 2.98859771 2.81886614 2 4 C1.7637353 7.21019977 1.60339698 10.41273872 1.48242188 13.62890625 C1.39075776 15.42413939 1.20240144 17.21385947 1 19 C0.34 19.33 -0.32 19.66 -1 20 C-1.02712351 17.60408962 -1.0468982 15.20849043 -1.0625 12.8125 C-1.07087891 12.13896484 -1.07925781 11.46542969 -1.08789062 10.77148438 C-1.10654779 6.94676622 -0.75942257 3.79711284 0 0 Z " fill="#B1DCD1" transform="translate(101,273)"/>
<path d="M0 0 C2.06242617 -0.02717692 4.12495703 -0.0464758 6.1875 -0.0625 C7.33605469 -0.07410156 8.48460937 -0.08570312 9.66796875 -0.09765625 C12.59300586 -0.01192832 15.16316291 0.32150977 18 1 C18 1.33 18 1.66 18 2 C13.38 2.33 8.76 2.66 4 3 C3.67 4.32 3.34 5.64 3 7 C3 6.01 3 5.02 3 4 C2.34 4 1.68 4 1 4 C0.67 2.68 0.34 1.36 0 0 Z " fill="#7FAF57" transform="translate(306,101)"/>
<path d="M0 0 C2.77457409 1.38728705 3.40493786 3.3415631 5 6 C6.61064522 8.05429599 8.29654722 10.02031163 10 12 C8.1875 12.625 8.1875 12.625 6 13 C5.01 12.34 4.02 11.68 3 11 C3 10.34 3 9.68 3 9 C2.01 8.67 1.02 8.34 0 8 C0 5.36 0 2.72 0 0 Z " fill="#7DAE52" transform="translate(380,219)"/>
<path d="M0 0 C0.33 0 0.66 0 1 0 C1.33 7.59 1.66 15.18 2 23 C2.33 23 2.66 23 3 23 C3 25.97 3 28.94 3 32 C2.01 31.34 1.02 30.68 0 30 C-0.34057617 27.01904297 -0.34057617 27.01904297 -0.29296875 23.2421875 C-0.28872391 22.57913605 -0.28447906 21.91608459 -0.28010559 21.23294067 C-0.26329971 19.11321559 -0.22564701 16.99443812 -0.1875 14.875 C-0.17245549 13.43881581 -0.15876668 12.00261672 -0.14648438 10.56640625 C-0.1133909 7.04396236 -0.0615968 3.52207364 0 0 Z " fill="#7FAE56" transform="translate(374,321)"/>
<path d="M0 0 C-0.90492188 0.65355469 -0.90492188 0.65355469 -1.828125 1.3203125 C-6.54781053 4.83723946 -10.11154958 7.85102316 -13 13 C-13.66796875 11.22265625 -13.66796875 11.22265625 -14 9 C-10.90570075 3.76782127 -6.26424556 -1.87147585 0 0 Z " fill="#A5D1BB" transform="translate(395,300)"/>
<path d="M0 0 C0.99 0 1.98 0 3 0 C5.24281523 5.20333134 6.55577239 8.34264585 5 14 C4.67 13.34 4.34 12.68 4 12 C3.34 12 2.68 12 2 12 C2.33 9.69 2.66 7.38 3 5 C2.01 5.33 1.02 5.66 0 6 C0 4.02 0 2.04 0 0 Z " fill="#7EAC54" transform="translate(170,346)"/>
<path d="M0 0 C0.33 0 0.66 0 1 0 C1.33 2.31 1.66 4.62 2 7 C1.01 7.33 0.02 7.66 -1 8 C-0.67 10.31 -0.34 12.62 0 15 C-0.66 15 -1.32 15 -2 15 C-2.33 16.32 -2.66 17.64 -3 19 C-4.34247691 15.28581387 -3.63869571 12.69003413 -2.625 8.9375 C-2.34914063 7.89464844 -2.07328125 6.85179687 -1.7890625 5.77734375 C-1.23810614 3.83808647 -0.63751641 1.91254923 0 0 Z " fill="#7FAE59" transform="translate(344,281)"/>
<path d="M0 0 C1.58468677 0.45363171 3.16769924 0.91311452 4.75 1.375 C5.63171875 1.63023438 6.5134375 1.88546875 7.421875 2.1484375 C9.76080572 2.9209934 11.83442562 3.83625676 14 5 C14 5.66 14 6.32 14 7 C10.86650268 8.04449911 10.01031744 7.93423645 7 7 C7 6.34 7 5.68 7 5 C4.66785852 3.79371992 2.50357861 2.8345262 0 2 C0 1.34 0 0.68 0 0 Z " fill="#7EAF53" transform="translate(325,103)"/>
<path d="M0 0 C0.66 0 1.32 0 2 0 C2.53181175 2.24743045 3.05007126 4.49807102 3.5625 6.75 C3.85253906 8.00296875 4.14257812 9.2559375 4.44140625 10.546875 C4.93444283 13.59473748 5.07666879 15.17641828 4 18 C3.87882813 17.43410156 3.75765625 16.86820312 3.6328125 16.28515625 C3.38144531 15.18494141 3.38144531 15.18494141 3.125 14.0625 C2.96257812 13.33160156 2.80015625 12.60070312 2.6328125 11.84765625 C2.17038477 9.79299706 2.17038477 9.79299706 0 9 C0 6.03 0 3.06 0 0 Z " fill="#7FAE5B" transform="translate(168,287)"/>
<path d="M0 0 C0.33 0.66 0.66 1.32 1 2 C1.66 2.33 2.32 2.66 3 3 C1.02 5.31 -0.96 7.62 -3 10 C-5.475 9.01 -5.475 9.01 -8 8 C-8 7.34 -8 6.68 -8 6 C-7.34 6 -6.68 6 -6 6 C-5.67 5.34 -5.34 4.68 -5 4 C-5 4.66 -5 5.32 -5 6 C-1.62911733 3.72584713 -1.62911733 3.72584713 0 0 Z " fill="#7CAB4F" transform="translate(154,246)"/>
<path d="M0 0 C7.37653219 0.75015582 14.67831776 1.83441535 22 3 C22 3.33 22 3.66 22 4 C19.68756208 4.02685412 17.3750373 4.04632841 15.0625 4.0625 C13.77472656 4.07410156 12.48695313 4.08570313 11.16015625 4.09765625 C8 4 8 4 7 3 C5.65252916 2.76924918 4.29622435 2.58846937 2.9375 2.4375 C1.638125 2.293125 0.33875 2.14875 -1 2 C-0.67 1.34 -0.34 0.68 0 0 Z " fill="#A4D1B7" transform="translate(184,407)"/>
<path d="M0 0 C-3 2 -3 2 -6 2 C-6.433125 2.928125 -6.433125 2.928125 -6.875 3.875 C-8 6 -8 6 -10 8 C-12.125 7.625 -12.125 7.625 -14 7 C-12.71064081 5.85157077 -11.41843421 4.70633773 -10.125 3.5625 C-9.04605469 2.60537109 -9.04605469 2.60537109 -7.9453125 1.62890625 C-4.87967011 -0.93810756 -3.75777555 -1.12733266 0 0 Z " fill="#ADDAC5" transform="translate(398,277)"/>
<path d="M0 0 C0.33 0 0.66 0 1 0 C1 5.94 1 11.88 1 18 C0.01 18.33 -0.98 18.66 -2 19 C-2.66 16.69 -3.32 14.38 -4 12 C-2.68 12 -1.36 12 0 12 C0 8.04 0 4.08 0 0 Z " fill="#9FD095" transform="translate(136,303)"/>
<path d="M0 0 C0.66 0.99 1.32 1.98 2 3 C1.125 6.6875 1.125 6.6875 0 10 C-1.32 10.33 -2.64 10.66 -4 11 C-3.48964169 6.6109185 -2.47785723 3.66291938 0 0 Z " fill="#7EAD56" transform="translate(142,139)"/>
<path d="M0 0 C1.2065625 0.0309375 1.2065625 0.0309375 2.4375 0.0625 C1.4375 2.0625 1.4375 2.0625 -1.43359375 3.1328125 C-2.61050781 3.48085938 -3.78742188 3.82890625 -5 4.1875 C-6.76150391 4.71730469 -6.76150391 4.71730469 -8.55859375 5.2578125 C-11.5625 6.0625 -11.5625 6.0625 -13.5625 6.0625 C-13.2325 5.0725 -12.9025 4.0825 -12.5625 3.0625 C-10.53125 2.3671875 -10.53125 2.3671875 -8.0625 1.9375 C-5.06542222 1.39688787 -2.86248901 0.06981681 0 0 Z " fill="#A7D2BF" transform="translate(334.5625,424.9375)"/>
<path d="M0 0 C2.375 0.1875 2.375 0.1875 5 1 C6.57005712 3.64055062 7.18418252 5.13371782 6.5390625 8.16796875 C6.36117187 8.77253906 6.18328125 9.37710937 6 10 C4.99421411 8.71283353 3.99553202 7.42011342 3 6.125 C2.443125 5.40570313 1.88625 4.68640625 1.3125 3.9453125 C0 2 0 2 0 0 Z " fill="#A6D0BF" transform="translate(144,397)"/>
<path d="M0 0 C-1.423125 0.37125 -1.423125 0.37125 -2.875 0.75 C-6.08693191 1.6857077 -6.08693191 1.6857077 -7.375 4.125 C-7.58125 4.74375 -7.7875 5.3625 -8 6 C-8.99 6 -9.98 6 -11 6 C-11.66 6.66 -12.32 7.32 -13 8 C-15.125 7.625 -15.125 7.625 -17 7 C-15.44038638 6.03697644 -13.87716775 5.07978996 -12.3125 4.125 C-11.44238281 3.59132813 -10.57226562 3.05765625 -9.67578125 2.5078125 C-2.76870281 -1.38435141 -2.76870281 -1.38435141 0 0 Z " fill="#7FAE5A" transform="translate(182,106)"/>
<path d="M0 0 C3.63 1.98 7.26 3.96 11 6 C11 6.66 11 7.32 11 8 C7.78147169 7.36934243 5.49198931 6.21979305 2.75 4.4375 C2.04359375 3.98246094 1.3371875 3.52742188 0.609375 3.05859375 C-0.18726563 2.53458984 -0.18726563 2.53458984 -1 2 C-0.67 1.34 -0.34 0.68 0 0 Z " fill="#A9D4C4" transform="translate(168,419)"/>
<path d="M0 0 C0.66 0 1.32 0 2 0 C2 0.99 2 1.98 2 3 C2.66 3 3.32 3 4 3 C6.04169485 5.90548882 7 7.40142046 7 11 C5.109375 10.81640625 5.109375 10.81640625 3 10 C1.953125 7.71484375 1.953125 7.71484375 1.25 4.9375 C1.00765625 4.01839844 0.7653125 3.09929687 0.515625 2.15234375 C0.34546875 1.44207031 0.1753125 0.73179687 0 0 Z " fill="#A5CFBB" transform="translate(138,384)"/>
<path d="M0 0 C0.33 0 0.66 0 1 0 C1.33 5.28 1.66 10.56 2 16 C1.01 16 0.02 16 -1 16 C-1 16.66 -1 17.32 -1 18 C-1.66 17.67 -2.32 17.34 -3 17 C-2.690625 16.236875 -2.38125 15.47375 -2.0625 14.6875 C-0.66197419 9.82685159 -0.34020266 5.03141827 0 0 Z " fill="#81B063" transform="translate(134,202)"/>
<path d="M0 0 C3.67420866 0.30618405 4.78135513 0.75771784 7.3125 3.5625 C8.1478125 4.7690625 8.1478125 4.7690625 9 6 C8.01 6.495 8.01 6.495 7 7 C7.33 7.99 7.66 8.98 8 10 C7.34 10 6.68 10 6 10 C5.67 8.02 5.34 6.04 5 4 C4.01 4.33 3.02 4.66 2 5 C2 4.01 2 3.02 2 2 C1.34 2 0.68 2 0 2 C0 1.34 0 0.68 0 0 Z " fill="#7DAD51" transform="translate(354,122)"/>
<path d="M0 0 C0.33 1.32 0.66 2.64 1 4 C-4.94 4.495 -4.94 4.495 -11 5 C-10.67 4.34 -10.34 3.68 -10 3 C-7.96875 2.40234375 -7.96875 2.40234375 -5.5 1.9375 C-2.46226779 1.54135157 -2.46226779 1.54135157 0 0 Z " fill="#ADD7CB" transform="translate(205,155)"/>
<path d="M0 0 C0.66 0 1.32 0 2 0 C2 0.66 2 1.32 2 2 C2.94875 1.938125 3.8975 1.87625 4.875 1.8125 C5.90625 1.874375 6.9375 1.93625 8 2 C8.99 3.485 8.99 3.485 10 5 C7.03 5 4.06 5 1 5 C0.34 3.68 -0.32 2.36 -1 1 C-0.67 0.67 -0.34 0.34 0 0 Z " fill="#A8D3C3" transform="translate(306,155)"/>
<path d="M0 0 C0.99 0.495 0.99 0.495 2 1 C2.8515625 3.72265625 2.8515625 3.72265625 3.625 7.0625 C3.88539063 8.16722656 4.14578125 9.27195312 4.4140625 10.41015625 C4.60742188 11.26480469 4.80078125 12.11945313 5 13 C4.01 13.495 4.01 13.495 3 14 C2.67 11.69 2.34 9.38 2 7 C1.34 7 0.68 7 0 7 C0 4.69 0 2.38 0 0 Z " fill="#AEDBC1" transform="translate(137,355)"/>
<path d="M0 0 C0.66 0.33 1.32 0.66 2 1 C2 1.66 2 2.32 2 3 C-2.29 2.34 -6.58 1.68 -11 1 C-6.44301001 -1.278495 -4.85049146 -0.98806307 0 0 Z " fill="#A4D1B9" transform="translate(113,295)"/>
<path d="M0 0 C0.33 0 0.66 0 1 0 C1.11269443 6.1105424 0.89604368 11.95170514 0 18 C-0.33 18 -0.66 18 -1 18 C-2.04559253 11.41276707 -1.83292414 6.40766041 0 0 Z " fill="#96BF9B" transform="translate(377,356)"/>
<path d="M0 0 C1.32 0.33 2.64 0.66 4 1 C4 1.66 4 2.32 4 3 C4.66 3 5.32 3 6 3 C6 2.34 6 1.68 6 1 C6.66 1 7.32 1 8 1 C7.67 2.65 7.34 4.3 7 6 C6.01 6 5.02 6 4 6 C1.8125 3 1.8125 3 0 0 Z " fill="#80B556" transform="translate(332,147)"/>
<path d="M0 0 C0.66 0 1.32 0 2 0 C1.01 3.3 0.02 6.6 -1 10 C-1.66 8.68 -2.32 7.36 -3 6 C-1.625 2.75 -1.625 2.75 0 0 Z " fill="#A5D1BD" transform="translate(373,381)"/>
<path d="M0 0 C0.33 0 0.66 0 1 0 C1.04898437 0.98742187 1.09796875 1.97484375 1.1484375 2.9921875 C1.22320312 4.27351563 1.29796875 5.55484375 1.375 6.875 C1.44460938 8.15117187 1.51421875 9.42734375 1.5859375 10.7421875 C1.67241106 14.08061699 1.67241106 14.08061699 4 16 C2.02 16.99 2.02 16.99 0 18 C0 12.06 0 6.12 0 0 Z " fill="#A1D394" transform="translate(375,302)"/>
<path d="M0 0 C1.27350058 3.01009228 0.99687398 4.00781505 -0.25 7.125 C-2 10 -2 10 -5 12 C-4.42365861 7.24518354 -2.44931479 4.02951788 0 0 Z " fill="#AFDCC2" transform="translate(369,369)"/>
<path d="M0 0 C1.65 1.65 3.3 3.3 5 5 C3.68 5.99 2.36 6.98 1 8 C1 6.68 1 5.36 1 4 C0.34 4 -0.32 4 -1 4 C-0.67 2.68 -0.34 1.36 0 0 Z " fill="#7FB058" transform="translate(177,359)"/>
<path d="M0 0 C0.33 0.66 0.66 1.32 1 2 C1.66 2 2.32 2 3 2 C2.67 4.97 2.34 7.94 2 11 C1.34 11 0.68 11 0 11 C0 7.37 0 3.74 0 0 Z " fill="#84B664" transform="translate(100,239)"/>
<path d="M0 0 C0.66 0.33 1.32 0.66 2 1 C1.67 2.65 1.34 4.3 1 6 C-0.32 5.67 -1.64 5.34 -3 5 C-1.125 1.125 -1.125 1.125 0 0 Z " fill="#7DAD51" transform="translate(130,222)"/>
<path d="M0 0 C-0.33 0.66 -0.66 1.32 -1 2 C-6.75 1.25 -6.75 1.25 -9 -1 C-5.23375329 -2.25541557 -3.62811066 -1.37061958 0 0 Z " fill="#9FC9AF" transform="translate(188,428)"/>
<path d="M0 0 C0.66 0.33 1.32 0.66 2 1 C1.09827532 2.17825358 0.17798498 3.34231577 -0.75 4.5 C-1.51570313 5.47453125 -1.51570313 5.47453125 -2.296875 6.46875 C-4 8 -4 8 -8 8 C-8 7.34 -8 6.68 -8 6 C-6.02678947 4.6273318 -4.02456848 3.29572383 -2 2 C-1.34 1.34 -0.68 0.68 0 0 Z " fill="#7EAC56" transform="translate(124,228)"/>
<path d="M0 0 C1.88391785 3.26545761 2.49287967 6.28111761 3 10 C1.68 9.34 0.36 8.68 -1 8 C-0.67 5.36 -0.34 2.72 0 0 Z " fill="#7FAF5A" transform="translate(373,147)"/>
<path d="M0 0 C1 3 1 3 0.0625 5.1875 C-0.4634375 6.0846875 -0.4634375 6.0846875 -1 7 C-2.32 7 -3.64 7 -5 7 C-5 5 -5 5 -2.5 2.375 C-1.675 1.59125 -0.85 0.8075 0 0 Z " fill="#A9D4C4" transform="translate(176,173)"/>
<path d="M0 0 C3 3 3 3 3.1875 5.6875 C3.0946875 6.8321875 3.0946875 6.8321875 3 8 C2.01 8.495 2.01 8.495 1 9 C0.67 6.03 0.34 3.06 0 0 Z " fill="#9AC899" transform="translate(135,347)"/>
<path d="M0 0 C2.97 0.495 2.97 0.495 6 1 C3.64046906 3.35953094 2.22104383 3.49141413 -1 4 C-0.67 2.68 -0.34 1.36 0 0 Z " fill="#7CAD4E" transform="translate(185,103)"/>
<path d="M0 0 C0.66 0 1.32 0 2 0 C0.25 5.75 0.25 5.75 -2 8 C-2.6875 6.25 -2.6875 6.25 -3 4 C-1.6875 1.75 -1.6875 1.75 0 0 Z " fill="#A3CFB7" transform="translate(369,391)"/>
<path d="M0 0 C1.98 0.99 1.98 0.99 4 2 C4 4.97 4 7.94 4 11 C3.67 11 3.34 11 3 11 C2.01 7.37 1.02 3.74 0 0 Z " fill="#85B86B" transform="translate(338,156)"/>
<path d="M0 0 C0.33 0.99 0.66 1.98 1 3 C1.66 3 2.32 3 3 3 C3 3.66 3 4.32 3 5 C1.68 5 0.36 5 -1 5 C-1 5.66 -1 6.32 -1 7 C-1.66 6.67 -2.32 6.34 -3 6 C-2.01 4.02 -1.02 2.04 0 0 Z " fill="#B1DFC6" transform="translate(175,153)"/>
</svg>
